<svg width="219" height="53" viewBox="0 0 219 53" fill="none" xmlns="http://www.w3.org/2000/svg">
<rect opacity="0.85" width="219" height="53" rx="5" fill="url(#paint0_linear_2_52)"/>
<path d="M30.2 33C30.0667 33 29.9533 32.96 29.86 32.88C29.78 32.7867 29.74 32.6733 29.74 32.54V19.48C29.74 19.3333 29.78 19.22 29.86 19.14C29.9533 19.0467 30.0667 19 30.2 19H38.36C38.5067 19 38.62 19.0467 38.7 19.14C38.7933 19.22 38.84 19.3333 38.84 19.48V20.28C38.84 20.4133 38.7933 20.5267 38.7 20.62C38.62 20.7 38.5067 20.74 38.36 20.74H31.68V25.4H37.96C38.1067 25.4 38.22 25.4467 38.3 25.54C38.3933 25.62 38.44 25.7333 38.44 25.88V26.68C38.44 26.8133 38.3933 26.9267 38.3 27.02C38.2067 27.1 38.0933 27.14 37.96 27.14H31.68V32.54C31.68 32.6733 31.6333 32.7867 31.54 32.88C31.4467 32.96 31.3333 33 31.2 33H30.2ZM41.3463 33C41.2129 33 41.0996 32.96 41.0063 32.88C40.9263 32.7867 40.8863 32.6733 40.8863 32.54V23.08C40.8863 22.9467 40.9263 22.8333 41.0063 22.74C41.0996 22.6467 41.2129 22.6 41.3463 22.6H42.2663C42.3996 22.6 42.5129 22.6467 42.6063 22.74C42.6996 22.8333 42.7463 22.9467 42.7463 23.08V23.96C43.2929 23.0533 44.2263 22.6 45.5463 22.6H46.3263C46.4596 22.6 46.5663 22.6467 46.6463 22.74C46.7396 22.82 46.7863 22.9267 46.7863 23.06V23.88C46.7863 24.0133 46.7396 24.12 46.6463 24.2C46.5663 24.28 46.4596 24.32 46.3263 24.32H45.1263C44.4063 24.32 43.8396 24.5333 43.4263 24.96C43.0129 25.3733 42.8063 25.94 42.8063 26.66V32.54C42.8063 32.6733 42.7596 32.7867 42.6663 32.88C42.5729 32.96 42.4596 33 42.3263 33H41.3463ZM52.4486 33.2C51.0753 33.2 49.9753 32.78 49.1486 31.94C48.3353 31.0867 47.8886 29.9267 47.8086 28.46L47.7886 27.78L47.8086 27.12C47.9019 25.68 48.3553 24.5333 49.1686 23.68C49.9953 22.8267 51.0819 22.4 52.4286 22.4C53.9086 22.4 55.0553 22.8733 55.8686 23.82C56.6819 24.7533 57.0886 26.02 57.0886 27.62V27.96C57.0886 28.0933 57.0419 28.2067 56.9486 28.3C56.8686 28.38 56.7619 28.42 56.6286 28.42H49.7086V28.6C49.7486 29.4667 50.0086 30.2067 50.4886 30.82C50.9819 31.42 51.6286 31.72 52.4286 31.72C53.0419 31.72 53.5419 31.6 53.9286 31.36C54.3286 31.1067 54.6219 30.8467 54.8086 30.58C54.9286 30.42 55.0153 30.3267 55.0686 30.3C55.1353 30.26 55.2486 30.24 55.4086 30.24H56.3886C56.5086 30.24 56.6086 30.2733 56.6886 30.34C56.7686 30.4067 56.8086 30.5 56.8086 30.62C56.8086 30.9133 56.6219 31.2667 56.2486 31.68C55.8886 32.0933 55.3753 32.4533 54.7086 32.76C54.0553 33.0533 53.3019 33.2 52.4486 33.2ZM55.1886 27.04V26.98C55.1886 26.06 54.9353 25.3133 54.4286 24.74C53.9353 24.1533 53.2686 23.86 52.4286 23.86C51.5886 23.86 50.9219 24.1533 50.4286 24.74C49.9486 25.3133 49.7086 26.06 49.7086 26.98V27.04H55.1886ZM63.64 33.2C62.2667 33.2 61.1667 32.78 60.34 31.94C59.5267 31.0867 59.08 29.9267 59 28.46L58.98 27.78L59 27.12C59.0933 25.68 59.5467 24.5333 60.36 23.68C61.1867 22.8267 62.2733 22.4 63.62 22.4C65.1 22.4 66.2467 22.8733 67.06 23.82C67.8733 24.7533 68.28 26.02 68.28 27.62V27.96C68.28 28.0933 68.2333 28.2067 68.14 28.3C68.06 28.38 67.9533 28.42 67.82 28.42H60.9V28.6C60.94 29.4667 61.2 30.2067 61.68 30.82C62.1733 31.42 62.82 31.72 63.62 31.72C64.2333 31.72 64.7333 31.6 65.12 31.36C65.52 31.1067 65.8133 30.8467 66 30.58C66.12 30.42 66.2067 30.3267 66.26 30.3C66.3267 30.26 66.44 30.24 66.6 30.24H67.58C67.7 30.24 67.8 30.2733 67.88 30.34C67.96 30.4067 68 30.5 68 30.62C68 30.9133 67.8133 31.2667 67.44 31.68C67.08 32.0933 66.5667 32.4533 65.9 32.76C65.2467 33.0533 64.4933 33.2 63.64 33.2ZM66.38 27.04V26.98C66.38 26.06 66.1267 25.3133 65.62 24.74C65.1267 24.1533 64.46 23.86 63.62 23.86C62.78 23.86 62.1133 24.1533 61.62 24.74C61.14 25.3133 60.9 26.06 60.9 26.98V27.04H66.38ZM79.7738 33.2C78.3471 33.2 77.2271 32.8 76.4138 32C75.6138 31.1867 75.1871 30.0533 75.1338 28.6L75.1138 27.8L75.1338 27C75.1871 25.5467 75.6138 24.42 76.4138 23.62C77.2271 22.8067 78.3471 22.4 79.7738 22.4C80.7338 22.4 81.5471 22.5733 82.2138 22.92C82.8804 23.2667 83.3738 23.6933 83.6938 24.2C84.0271 24.7067 84.2071 25.2133 84.2338 25.72C84.2471 25.8533 84.2071 25.96 84.1138 26.04C84.0204 26.12 83.9071 26.16 83.7738 26.16H82.8138C82.6804 26.16 82.5804 26.1333 82.5138 26.08C82.4471 26.0267 82.3804 25.92 82.3138 25.76C82.0871 25.12 81.7671 24.6667 81.3538 24.4C80.9404 24.12 80.4204 23.98 79.7938 23.98C78.9671 23.98 78.3071 24.24 77.8138 24.76C77.3338 25.2667 77.0738 26.0467 77.0337 27.1L77.0138 27.82L77.0337 28.5C77.0738 29.5667 77.3338 30.3533 77.8138 30.86C78.2938 31.3667 78.9538 31.62 79.7938 31.62C80.4204 31.62 80.9404 31.4867 81.3538 31.22C81.7671 30.94 82.0871 30.48 82.3138 29.84C82.3804 29.68 82.4471 29.5733 82.5138 29.52C82.5804 29.4533 82.6804 29.42 82.8138 29.42H83.7738C83.9071 29.42 84.0204 29.4667 84.1138 29.56C84.2071 29.64 84.2471 29.7467 84.2338 29.88C84.2071 30.3733 84.0271 30.88 83.6938 31.4C83.3738 31.9067 82.8804 32.3333 82.2138 32.68C81.5604 33.0267 80.7471 33.2 79.7738 33.2ZM90.8689 33.2C89.4022 33.2 88.2622 32.7867 87.4489 31.96C86.6489 31.1333 86.2222 30.0333 86.1689 28.66L86.1489 27.8L86.1689 26.94C86.2222 25.58 86.6556 24.4867 87.4689 23.66C88.2822 22.82 89.4156 22.4 90.8689 22.4C92.3222 22.4 93.4556 22.82 94.2689 23.66C95.0822 24.4867 95.5156 25.58 95.5689 26.94C95.5822 27.0867 95.5889 27.3733 95.5889 27.8C95.5889 28.2267 95.5822 28.5133 95.5689 28.66C95.5156 30.0333 95.0822 31.1333 94.2689 31.96C93.4689 32.7867 92.3356 33.2 90.8689 33.2ZM90.8689 31.66C91.7089 31.66 92.3689 31.3933 92.8489 30.86C93.3422 30.3267 93.6089 29.56 93.6489 28.56C93.6622 28.4267 93.6689 28.1733 93.6689 27.8C93.6689 27.4267 93.6622 27.1733 93.6489 27.04C93.6089 26.04 93.3422 25.2733 92.8489 24.74C92.3689 24.2067 91.7089 23.94 90.8689 23.94C90.0289 23.94 89.3622 24.2067 88.8689 24.74C88.3756 25.2733 88.1156 26.04 88.0889 27.04L88.0689 27.8L88.0889 28.56C88.1156 29.56 88.3756 30.3267 88.8689 30.86C89.3622 31.3933 90.0289 31.66 90.8689 31.66ZM98.5533 33C98.4199 33 98.3066 32.96 98.2133 32.88C98.1333 32.7867 98.0933 32.6733 98.0933 32.54V23.06C98.0933 22.9267 98.1333 22.82 98.2133 22.74C98.3066 22.6467 98.4199 22.6 98.5533 22.6H99.4933C99.6266 22.6 99.7333 22.6467 99.8133 22.74C99.9066 22.82 99.9533 22.9267 99.9533 23.06V23.94C100.34 23.4467 100.793 23.0667 101.313 22.8C101.847 22.5333 102.507 22.4 103.293 22.4C104.573 22.4 105.567 22.8133 106.273 23.64C106.993 24.4533 107.353 25.54 107.353 26.9V32.54C107.353 32.6733 107.307 32.7867 107.213 32.88C107.133 32.96 107.027 33 106.893 33H105.893C105.76 33 105.647 32.96 105.553 32.88C105.473 32.7867 105.433 32.6733 105.433 32.54V27C105.433 26.0533 105.2 25.32 104.733 24.8C104.28 24.28 103.62 24.02 102.753 24.02C101.913 24.02 101.247 24.2867 100.753 24.82C100.26 25.34 100.013 26.0667 100.013 27V32.54C100.013 32.6733 99.9666 32.7867 99.8733 32.88C99.7933 32.96 99.6866 33 99.5533 33H98.5533ZM113.822 33.2C112.889 33.2 112.102 33.0533 111.462 32.76C110.836 32.4533 110.362 32.1067 110.042 31.72C109.736 31.3333 109.582 31.0133 109.582 30.76C109.582 30.6267 109.629 30.5267 109.722 30.46C109.829 30.38 109.936 30.34 110.042 30.34H110.942C111.076 30.34 111.196 30.4067 111.302 30.54C111.622 30.9133 111.969 31.2067 112.342 31.42C112.716 31.6333 113.216 31.74 113.842 31.74C114.536 31.74 115.096 31.6067 115.522 31.34C115.962 31.06 116.182 30.68 116.182 30.2C116.182 29.88 116.089 29.62 115.902 29.42C115.729 29.2067 115.422 29.0267 114.982 28.88C114.556 28.72 113.916 28.5467 113.062 28.36C111.902 28.1067 111.076 27.74 110.582 27.26C110.102 26.78 109.862 26.16 109.862 25.4C109.862 24.8933 110.009 24.4133 110.302 23.96C110.609 23.4933 111.049 23.12 111.622 22.84C112.209 22.5467 112.909 22.4 113.722 22.4C114.576 22.4 115.302 22.54 115.902 22.82C116.502 23.1 116.949 23.4333 117.242 23.82C117.549 24.1933 117.702 24.5067 117.702 24.76C117.702 24.88 117.656 24.98 117.562 25.06C117.482 25.14 117.382 25.18 117.262 25.18H116.422C116.262 25.18 116.129 25.1133 116.022 24.98C115.809 24.7267 115.622 24.5333 115.462 24.4C115.316 24.2533 115.096 24.1267 114.802 24.02C114.522 23.9133 114.162 23.86 113.722 23.86C113.082 23.86 112.589 24 112.242 24.28C111.896 24.5467 111.722 24.9 111.722 25.34C111.722 25.62 111.796 25.86 111.942 26.06C112.089 26.2467 112.369 26.42 112.782 26.58C113.209 26.74 113.822 26.9067 114.622 27.08C115.889 27.3467 116.782 27.7333 117.302 28.24C117.836 28.7333 118.102 29.3667 118.102 30.14C118.102 30.7133 117.936 31.2333 117.602 31.7C117.269 32.1667 116.776 32.5333 116.122 32.8C115.482 33.0667 114.716 33.2 113.822 33.2ZM124.298 33.2C123.031 33.2 122.051 32.7933 121.358 31.98C120.664 31.1533 120.318 30.06 120.318 28.7V23.06C120.318 22.9267 120.358 22.82 120.438 22.74C120.531 22.6467 120.644 22.6 120.778 22.6H121.778C121.911 22.6 122.018 22.6467 122.098 22.74C122.191 22.82 122.238 22.9267 122.238 23.06V28.6C122.238 30.5867 123.104 31.58 124.838 31.58C125.678 31.58 126.344 31.32 126.838 30.8C127.331 30.2667 127.578 29.5333 127.578 28.6V23.06C127.578 22.9267 127.618 22.82 127.698 22.74C127.791 22.6467 127.904 22.6 128.038 22.6H129.037C129.171 22.6 129.278 22.6467 129.358 22.74C129.438 22.82 129.478 22.9267 129.478 23.06V32.54C129.478 32.6733 129.438 32.7867 129.358 32.88C129.278 32.96 129.171 33 129.037 33H128.098C127.964 33 127.851 32.96 127.758 32.88C127.678 32.7867 127.638 32.6733 127.638 32.54V31.66C127.264 32.1667 126.811 32.5533 126.278 32.82C125.744 33.0733 125.084 33.2 124.298 33.2ZM132.929 33C132.795 33 132.682 32.96 132.589 32.88C132.509 32.7867 132.469 32.6733 132.469 32.54V19.26C132.469 19.1267 132.509 19.02 132.589 18.94C132.682 18.8467 132.795 18.8 132.929 18.8H133.869C134.002 18.8 134.109 18.8467 134.189 18.94C134.282 19.02 134.329 19.1267 134.329 19.26V32.54C134.329 32.6733 134.282 32.7867 134.189 32.88C134.109 32.96 134.002 33 133.869 33H132.929ZM141.372 33C139.265 33 138.212 31.8267 138.212 29.48V24.2H136.652C136.519 24.2 136.405 24.16 136.312 24.08C136.232 23.9867 136.192 23.8733 136.192 23.74V23.06C136.192 22.9267 136.232 22.82 136.312 22.74C136.405 22.6467 136.519 22.6 136.652 22.6H138.212V19.26C138.212 19.1267 138.252 19.02 138.332 18.94C138.425 18.8467 138.539 18.8 138.672 18.8H139.612C139.745 18.8 139.852 18.8467 139.932 18.94C140.025 19.02 140.072 19.1267 140.072 19.26V22.6H142.552C142.685 22.6 142.792 22.6467 142.872 22.74C142.965 22.82 143.012 22.9267 143.012 23.06V23.74C143.012 23.8733 142.965 23.9867 142.872 24.08C142.792 24.16 142.685 24.2 142.552 24.2H140.072V29.34C140.072 30.0067 140.185 30.5133 140.412 30.86C140.639 31.1933 141.012 31.36 141.532 31.36H142.752C142.885 31.36 142.992 31.4067 143.072 31.5C143.165 31.58 143.212 31.6867 143.212 31.82V32.54C143.212 32.6733 143.165 32.7867 143.072 32.88C142.992 32.96 142.885 33 142.752 33H141.372ZM148.025 33.2C147.371 33.2 146.765 33.0667 146.205 32.8C145.645 32.5333 145.198 32.1733 144.865 31.72C144.545 31.2533 144.385 30.74 144.385 30.18C144.385 29.3 144.745 28.58 145.465 28.02C146.198 27.4467 147.185 27.0733 148.425 26.9L151.405 26.48V25.9C151.405 24.54 150.625 23.86 149.065 23.86C148.478 23.86 147.998 23.9867 147.625 24.24C147.251 24.48 146.971 24.7667 146.785 25.1C146.745 25.22 146.691 25.3067 146.625 25.36C146.571 25.4133 146.491 25.44 146.385 25.44H145.525C145.405 25.44 145.298 25.4 145.205 25.32C145.125 25.2267 145.085 25.12 145.085 25C145.098 24.68 145.245 24.32 145.525 23.92C145.818 23.5067 146.265 23.1533 146.865 22.86C147.465 22.5533 148.205 22.4 149.085 22.4C150.578 22.4 151.651 22.7533 152.305 23.46C152.958 24.1533 153.285 25.02 153.285 26.06V32.54C153.285 32.6733 153.238 32.7867 153.145 32.88C153.065 32.96 152.958 33 152.825 33H151.905C151.771 33 151.658 32.96 151.565 32.88C151.485 32.7867 151.445 32.6733 151.445 32.54V31.68C151.151 32.1067 150.725 32.4667 150.165 32.76C149.605 33.0533 148.891 33.2 148.025 33.2ZM148.445 31.7C149.311 31.7 150.018 31.42 150.565 30.86C151.125 30.2867 151.405 29.4667 151.405 28.4V27.84L149.085 28.18C148.138 28.3133 147.425 28.54 146.945 28.86C146.465 29.1667 146.225 29.56 146.225 30.04C146.225 30.5733 146.445 30.9867 146.885 31.28C147.325 31.56 147.845 31.7 148.445 31.7ZM160.122 33C158.015 33 156.962 31.8267 156.962 29.48V24.2H155.402C155.269 24.2 155.155 24.16 155.062 24.08C154.982 23.9867 154.942 23.8733 154.942 23.74V23.06C154.942 22.9267 154.982 22.82 155.062 22.74C155.155 22.6467 155.269 22.6 155.402 22.6H156.962V19.26C156.962 19.1267 157.002 19.02 157.082 18.94C157.175 18.8467 157.289 18.8 157.422 18.8H158.362C158.495 18.8 158.602 18.8467 158.682 18.94C158.775 19.02 158.822 19.1267 158.822 19.26V22.6H161.302C161.435 22.6 161.542 22.6467 161.622 22.74C161.715 22.82 161.762 22.9267 161.762 23.06V23.74C161.762 23.8733 161.715 23.9867 161.622 24.08C161.542 24.16 161.435 24.2 161.302 24.2H158.822V29.34C158.822 30.0067 158.935 30.5133 159.162 30.86C159.389 31.1933 159.762 31.36 160.282 31.36H161.502C161.635 31.36 161.742 31.4067 161.822 31.5C161.915 31.58 161.962 31.6867 161.962 31.82V32.54C161.962 32.6733 161.915 32.7867 161.822 32.88C161.742 32.96 161.635 33 161.502 33H160.122ZM164.175 20.66C164.041 20.66 163.928 20.62 163.835 20.54C163.755 20.4467 163.715 20.3333 163.715 20.2V19.12C163.715 18.9867 163.755 18.8733 163.835 18.78C163.928 18.6867 164.041 18.64 164.175 18.64H165.435C165.568 18.64 165.681 18.6867 165.775 18.78C165.868 18.8733 165.915 18.9867 165.915 19.12V20.2C165.915 20.3333 165.868 20.4467 165.775 20.54C165.681 20.62 165.568 20.66 165.435 20.66H164.175ZM164.335 33C164.201 33 164.088 32.96 163.995 32.88C163.915 32.7867 163.875 32.6733 163.875 32.54V23.06C163.875 22.9267 163.915 22.82 163.995 22.74C164.088 22.6467 164.201 22.6 164.335 22.6H165.295C165.428 22.6 165.535 22.6467 165.615 22.74C165.708 22.82 165.755 22.9267 165.755 23.06V32.54C165.755 32.6733 165.708 32.7867 165.615 32.88C165.535 32.96 165.428 33 165.295 33H164.335ZM172.978 33.2C171.512 33.2 170.372 32.7867 169.558 31.96C168.758 31.1333 168.332 30.0333 168.278 28.66L168.258 27.8L168.278 26.94C168.332 25.58 168.765 24.4867 169.578 23.66C170.392 22.82 171.525 22.4 172.978 22.4C174.432 22.4 175.565 22.82 176.378 23.66C177.192 24.4867 177.625 25.58 177.678 26.94C177.692 27.0867 177.698 27.3733 177.698 27.8C177.698 28.2267 177.692 28.5133 177.678 28.66C177.625 30.0333 177.192 31.1333 176.378 31.96C175.578 32.7867 174.445 33.2 172.978 33.2ZM172.978 31.66C173.818 31.66 174.478 31.3933 174.958 30.86C175.452 30.3267 175.718 29.56 175.758 28.56C175.772 28.4267 175.778 28.1733 175.778 27.8C175.778 27.4267 175.772 27.1733 175.758 27.04C175.718 26.04 175.452 25.2733 174.958 24.74C174.478 24.2067 173.818 23.94 172.978 23.94C172.138 23.94 171.472 24.2067 170.978 24.74C170.485 25.2733 170.225 26.04 170.198 27.04L170.178 27.8L170.198 28.56C170.225 29.56 170.485 30.3267 170.978 30.86C171.472 31.3933 172.138 31.66 172.978 31.66ZM180.663 33C180.529 33 180.416 32.96 180.323 32.88C180.243 32.7867 180.203 32.6733 180.203 32.54V23.06C180.203 22.9267 180.243 22.82 180.323 22.74C180.416 22.6467 180.529 22.6 180.663 22.6H181.603C181.736 22.6 181.843 22.6467 181.923 22.74C182.016 22.82 182.063 22.9267 182.063 23.06V23.94C182.449 23.4467 182.903 23.0667 183.423 22.8C183.956 22.5333 184.616 22.4 185.403 22.4C186.683 22.4 187.676 22.8133 188.383 23.64C189.103 24.4533 189.463 25.54 189.463 26.9V32.54C189.463 32.6733 189.416 32.7867 189.323 32.88C189.243 32.96 189.136 33 189.003 33H188.003C187.869 33 187.756 32.96 187.663 32.88C187.583 32.7867 187.543 32.6733 187.543 32.54V27C187.543 26.0533 187.309 25.32 186.843 24.8C186.389 24.28 185.729 24.02 184.863 24.02C184.023 24.02 183.356 24.2867 182.863 24.82C182.369 25.34 182.123 26.0667 182.123 27V32.54C182.123 32.6733 182.076 32.7867 181.983 32.88C181.903 32.96 181.796 33 181.663 33H180.663Z" fill="white"/>
<defs>
<linearGradient id="paint0_linear_2_52" x1="133.343" y1="62.1731" x2="134.225" y2="-12.7612" gradientUnits="userSpaceOnUse">
<stop stop-color="#F35F2F"/>
<stop offset="1" stop-color="#F35F2F" stop-opacity="0.75"/>
</linearGradient>
</defs>
</svg>
