<svg width="118" height="42" viewBox="0 0 118 42" fill="none" xmlns="http://www.w3.org/2000/svg">
<g opacity="0.85">
<rect width="118" height="42" rx="5" fill="url(#paint0_linear_2_46)"/>
<path d="M29.362 26.168C28.3913 26.168 27.5513 25.958 26.842 25.538C26.142 25.1087 25.6007 24.516 25.218 23.76C24.8353 22.9947 24.644 22.1127 24.644 21.114C24.644 20.106 24.8353 19.224 25.218 18.468C25.6007 17.7027 26.142 17.1053 26.842 16.676C27.5513 16.2467 28.3913 16.032 29.362 16.032C30.51 16.032 31.448 16.312 32.176 16.872C32.904 17.432 33.366 18.216 33.562 19.224H31.91C31.7793 18.6547 31.4993 18.202 31.07 17.866C30.6407 17.53 30.0667 17.362 29.348 17.362C28.368 17.362 27.5933 17.698 27.024 18.37C26.4547 19.0327 26.17 19.9473 26.17 21.114C26.17 22.2713 26.4547 23.1813 27.024 23.844C27.5933 24.5067 28.368 24.838 29.348 24.838C30.0667 24.838 30.6407 24.6793 31.07 24.362C31.4993 24.0447 31.7793 23.6107 31.91 23.06H33.562C33.366 24.0307 32.904 24.7913 32.176 25.342C31.448 25.8927 30.51 26.168 29.362 26.168ZM38.3852 26.168C37.7226 26.168 37.1252 26.0187 36.5932 25.72C36.0706 25.412 35.6552 24.9873 35.3472 24.446C35.0392 23.8953 34.8852 23.256 34.8852 22.528C34.8852 21.8 35.0392 21.1653 35.3472 20.624C35.6646 20.0733 36.0892 19.6487 36.6212 19.35C37.1532 19.042 37.7459 18.888 38.3992 18.888C39.0619 18.888 39.6546 19.042 40.1772 19.35C40.7092 19.6487 41.1292 20.0733 41.4372 20.624C41.7546 21.1653 41.9132 21.8 41.9132 22.528C41.9132 23.256 41.7546 23.8953 41.4372 24.446C41.1292 24.9873 40.7092 25.412 40.1772 25.72C39.6452 26.0187 39.0479 26.168 38.3852 26.168ZM38.3852 24.894C38.7399 24.894 39.0666 24.8053 39.3652 24.628C39.6732 24.4507 39.9206 24.1893 40.1072 23.844C40.2939 23.4893 40.3872 23.0507 40.3872 22.528C40.3872 22.0053 40.2939 21.5713 40.1072 21.226C39.9299 20.8713 39.6872 20.6053 39.3792 20.428C39.0806 20.2507 38.7539 20.162 38.3992 20.162C38.0446 20.162 37.7132 20.2507 37.4052 20.428C37.1066 20.6053 36.8639 20.8713 36.6772 21.226C36.4906 21.5713 36.3972 22.0053 36.3972 22.528C36.3972 23.0507 36.4906 23.4893 36.6772 23.844C36.8639 24.1893 37.1066 24.4507 37.4052 24.628C37.7039 24.8053 38.0306 24.894 38.3852 24.894ZM43.5181 26V19.056H44.8341L44.9461 20.274C45.1607 19.8447 45.4734 19.5087 45.8841 19.266C46.3041 19.014 46.7847 18.888 47.3261 18.888C48.1661 18.888 48.8241 19.1493 49.3001 19.672C49.7854 20.1947 50.0281 20.974 50.0281 22.01V26H48.5581V22.164C48.5581 20.82 48.0074 20.148 46.9061 20.148C46.3554 20.148 45.8981 20.344 45.5341 20.736C45.1794 21.128 45.0021 21.688 45.0021 22.416V26H43.5181ZM54.6879 26C54.0066 26 53.4652 25.8367 53.0639 25.51C52.6626 25.174 52.4619 24.5813 52.4619 23.732V20.302H51.2719V19.056H52.4619L52.6439 17.292H53.9459V19.056H55.9059V20.302H53.9459V23.732C53.9459 24.1147 54.0252 24.3807 54.1839 24.53C54.3519 24.67 54.6366 24.74 55.0379 24.74H55.8359V26H54.6879ZM59.788 26.168C59.2 26.168 58.7147 26.07 58.332 25.874C57.9494 25.678 57.6647 25.4213 57.478 25.104C57.2914 24.7773 57.198 24.4227 57.198 24.04C57.198 23.368 57.4594 22.836 57.982 22.444C58.5047 22.052 59.2514 21.856 60.222 21.856H62.042V21.73C62.042 21.1887 61.8927 20.7827 61.594 20.512C61.3047 20.2413 60.9267 20.106 60.46 20.106C60.0494 20.106 59.69 20.2087 59.382 20.414C59.0834 20.61 58.9014 20.904 58.836 21.296H57.352C57.3987 20.792 57.5667 20.3627 57.856 20.008C58.1547 19.644 58.528 19.3687 58.976 19.182C59.4334 18.986 59.9327 18.888 60.474 18.888C61.4447 18.888 62.196 19.1447 62.728 19.658C63.26 20.162 63.526 20.8527 63.526 21.73V26H62.238L62.112 24.81C61.916 25.1927 61.6314 25.5147 61.258 25.776C60.8847 26.0373 60.3947 26.168 59.788 26.168ZM60.082 24.964C60.4834 24.964 60.8194 24.8707 61.09 24.684C61.37 24.488 61.5847 24.2313 61.734 23.914C61.8927 23.5967 61.9907 23.2467 62.028 22.864H60.376C59.788 22.864 59.368 22.9667 59.116 23.172C58.8734 23.3773 58.752 23.634 58.752 23.942C58.752 24.2593 58.8687 24.5113 59.102 24.698C59.3447 24.8753 59.6714 24.964 60.082 24.964ZM68.5464 26.168C67.865 26.168 67.2537 26.014 66.7124 25.706C66.1804 25.398 65.7604 24.9733 65.4524 24.432C65.1537 23.8813 65.0044 23.2467 65.0044 22.528C65.0044 21.8093 65.1537 21.1793 65.4524 20.638C65.7604 20.0873 66.1804 19.658 66.7124 19.35C67.2537 19.042 67.865 18.888 68.5464 18.888C69.405 18.888 70.1237 19.112 70.7024 19.56C71.2904 20.008 71.6684 20.6147 71.8364 21.38H70.2824C70.189 20.9973 69.9837 20.6987 69.6664 20.484C69.349 20.2693 68.9757 20.162 68.5464 20.162C68.1824 20.162 67.8464 20.2553 67.5384 20.442C67.2304 20.6193 66.983 20.8853 66.7964 21.24C66.6097 21.5853 66.5164 22.0147 66.5164 22.528C66.5164 23.0413 66.6097 23.4753 66.7964 23.83C66.983 24.1753 67.2304 24.4413 67.5384 24.628C67.8464 24.8147 68.1824 24.908 68.5464 24.908C68.9757 24.908 69.349 24.8007 69.6664 24.586C69.9837 24.3713 70.189 24.068 70.2824 23.676H71.8364C71.6777 24.4227 71.3044 25.0247 70.7164 25.482C70.1284 25.9393 69.405 26.168 68.5464 26.168ZM76.2211 26C75.5398 26 74.9984 25.8367 74.5971 25.51C74.1958 25.174 73.9951 24.5813 73.9951 23.732V20.302H72.8051V19.056H73.9951L74.1771 17.292H75.4791V19.056H77.4391V20.302H75.4791V23.732C75.4791 24.1147 75.5584 24.3807 75.7171 24.53C75.8851 24.67 76.1698 24.74 76.5711 24.74H77.3691V26H76.2211ZM85.0586 26.168C84.2186 26.168 83.5559 25.9067 83.0706 25.384C82.5946 24.8613 82.3566 24.082 82.3566 23.046V19.056H83.8406V22.892C83.8406 24.236 84.3913 24.908 85.4926 24.908C86.0433 24.908 86.4959 24.712 86.8506 24.32C87.2053 23.928 87.3826 23.368 87.3826 22.64V19.056H88.8666V26H87.5506L87.4386 24.782C87.2239 25.2113 86.9066 25.552 86.4866 25.804C86.0759 26.0467 85.5999 26.168 85.0586 26.168ZM93.5264 26.168C92.6491 26.168 91.9257 25.9533 91.3564 25.524C90.7871 25.0947 90.4604 24.5253 90.3764 23.816H91.8744C91.9491 24.1333 92.1264 24.4087 92.4064 24.642C92.6864 24.866 93.0551 24.978 93.5124 24.978C93.9604 24.978 94.2871 24.8847 94.4924 24.698C94.6977 24.5113 94.8004 24.2967 94.8004 24.054C94.8004 23.6993 94.6557 23.4613 94.3664 23.34C94.0864 23.2093 93.6944 23.0927 93.1904 22.99C92.7984 22.906 92.4064 22.794 92.0144 22.654C91.6317 22.514 91.3097 22.318 91.0484 22.066C90.7964 21.8047 90.6704 21.4547 90.6704 21.016C90.6704 20.4093 90.9037 19.9053 91.3704 19.504C91.8371 19.0933 92.4904 18.888 93.3304 18.888C94.1051 18.888 94.7304 19.0747 95.2064 19.448C95.6917 19.8213 95.9764 20.3487 96.0604 21.03H94.6324C94.5857 20.7313 94.4457 20.498 94.2124 20.33C93.9884 20.162 93.6851 20.078 93.3024 20.078C92.9291 20.078 92.6397 20.1573 92.4344 20.316C92.2291 20.4653 92.1264 20.6613 92.1264 20.904C92.1264 21.1467 92.2664 21.338 92.5464 21.478C92.8357 21.618 93.2137 21.744 93.6804 21.856C94.1471 21.9587 94.5764 22.08 94.9684 22.22C95.3697 22.3507 95.6917 22.5467 95.9344 22.808C96.1771 23.0693 96.2984 23.452 96.2984 23.956C96.3077 24.5907 96.0604 25.118 95.5564 25.538C95.0617 25.958 94.3851 26.168 93.5264 26.168Z" fill="white"/>
</g>
<defs>
<linearGradient id="paint0_linear_2_46" x1="71.8468" y1="49.2692" x2="72.8752" y2="-10.1031" gradientUnits="userSpaceOnUse">
<stop stop-color="#F35F2F"/>
<stop offset="1" stop-color="#F35F2F" stop-opacity="0.75"/>
</linearGradient>
</defs>
</svg>
